<?xml version="1.0" encoding="UTF-8"?>
<svg width="752pt" height="752pt" version="1.1" viewBox="0 0 752 752" xmlns="http://www.w3.org/2000/svg">
 <path d="m376 295.21c1.043 26.141 10.23 53.371 20.223 75.773 9.8516-52.473 25.859-106.27 60.289-147.85-54.129 5.4922-108.45-7.625-156.99-30.121 12.977 21.977 35.895 49.16 60.758 63.84-0.94531 0.89844-1.9414 1.8008-2.8906 2.7461h0.003906c-26.281 26.281-45.184 59.02-54.805 94.922-9.6172 35.902-9.6172 73.703 0 109.61 9.6211 35.902 28.523 68.637 54.805 94.918l26.711-26.758c-31.172-31.117-49.348-72.918-50.852-116.94s13.777-86.961 42.75-120.14z"/>
</svg>
